<svg id="_0125_team_presentation_3" xmlns="http://www.w3.org/2000/svg" viewBox="0 0 500 500" data-imageid="team-presentation-3-40-3ad7a" imageName="Team Presentation 3" class="illustrations_image" style="width: 151px;"><defs><style>.cls-1_team-presentation-3-40-3ad7a,.cls-2_team-presentation-3-40-3ad7a{fill:#fff;}.cls-3_team-presentation-3-40-3ad7a{fill:#f4a28c;}.cls-4_team-presentation-3-40-3ad7a,.cls-5_team-presentation-3-40-3ad7a{fill:#a5a5a5;}.cls-6_team-presentation-3-40-3ad7a{opacity:.03;}.cls-6_team-presentation-3-40-3ad7a,.cls-7_team-presentation-3-40-3ad7a{fill:#000001;}.cls-8_team-presentation-3-40-3ad7a{fill:#e6e6e6;}.cls-5_team-presentation-3-40-3ad7a{opacity:.26;}.cls-9_team-presentation-3-40-3ad7a{fill:#ce8172;opacity:.31;}.cls-10_team-presentation-3-40-3ad7a{opacity:.58;}.cls-10_team-presentation-3-40-3ad7a,.cls-11_team-presentation-3-40-3ad7a,.cls-12_team-presentation-3-40-3ad7a{fill:#68e1fd;}.cls-2_team-presentation-3-40-3ad7a{opacity:.46;}.cls-13_team-presentation-3-40-3ad7a{fill:#24285b;}.cls-7_team-presentation-3-40-3ad7a{opacity:.08;}.cls-11_team-presentation-3-40-3ad7a{opacity:.73;}.cls-14_team-presentation-3-40-3ad7a{fill:#ffd200;}</style></defs><g id="presentation_team-presentation-3-40-3ad7a"><rect class="cls-4_team-presentation-3-40-3ad7a" x="244.65" y="300.64" width="3.27" height="42.3"/><path class="cls-4_team-presentation-3-40-3ad7a" d="m246.29,361.39c-5.54,0-10.04-4.51-10.04-10.04s4.51-10.04,10.04-10.04,10.04,4.51,10.04,10.04-4.5,10.04-10.04,10.04Zm0-16.82c-3.74,0-6.77,3.04-6.77,6.77s3.04,6.77,6.77,6.77,6.77-3.04,6.77-6.77-3.04-6.77-6.77-6.77Z"/><rect class="cls-8_team-presentation-3-40-3ad7a" x="85.75" y="78.14" width="321.09" height="246.75"/><rect class="cls-4_team-presentation-3-40-3ad7a" x="85.75" y="51.75" width="321.09" height="36.04"/><path class="cls-1_team-presentation-3-40-3ad7a" d="m298.82,221.17c-30.5,0-55.32-24.82-55.32-55.32s24.82-55.32,55.32-55.32,55.32,24.82,55.32,55.32-24.82,55.32-55.32,55.32Zm0-95.73c-22.29,0-40.42,18.13-40.42,40.42s18.13,40.42,40.42,40.42,40.42-18.13,40.42-40.42-18.13-40.42-40.42-40.42Z"/><path class="cls-13_team-presentation-3-40-3ad7a" d="m354.14,165.85h-14.9c0-22.29-18.13-40.42-40.42-40.42v-14.9c30.5,0,55.32,24.82,55.32,55.32Z"/><path class="cls-14_team-presentation-3-40-3ad7a" d="m298.82,221.17v-14.9c22.29,0,40.42-18.13,40.42-40.42h14.9c0,30.5-24.82,55.32-55.32,55.32Z"/><path class="cls-4_team-presentation-3-40-3ad7a" d="m300.04,147.96c.98,0,1.28.34,1.28,1.32v2.09c3.93.55,6.19,2.52,7.86,5.94.51,1.03.3,1.58-.85,2.09l-2.09.94c-.98.47-1.45.26-2.01-.77-1.15-2.22-2.56-3.29-5.47-3.29-3.63,0-5.3,1.07-5.3,3.5,0,1.58,1.45,2.56,2.95,2.86.73.17,1.75.34,3.07.47,2.39.21,3.59.38,5.68,1.11,1.07.38,1.88.81,2.52,1.37,1.2,1.11,2.26,3.25,2.26,5.98,0,4.66-3.12,7.82-8.63,8.63v2.22c0,.98-.3,1.32-1.28,1.32h-2.35c-.98,0-1.32-.34-1.32-1.32v-2.18c-4.27-.56-7.13-2.73-8.54-6.58-.34-.94,0-1.58.98-1.96l2.09-.77c1.07-.38,1.54-.13,2.01.94.94,2.39,2.86,3.59,5.77,3.59,3.93,0,5.89-1.24,5.89-3.76,0-1.32-.6-2.14-1.84-2.65-1.24-.47-2.31-.64-4.23-.81-2.35-.21-3.67-.47-5.72-1.24-1.02-.38-1.84-.85-2.48-1.41-1.28-1.15-2.31-3.2-2.31-5.81,0-4.61,2.9-7.69,8.37-8.41v-2.09c0-.98.34-1.32,1.32-1.32h2.35Z"/><path class="cls-7_team-presentation-3-40-3ad7a" d="m327.83,186.54s-18.1-4.78-15.43,11.92c2.68,16.7,12.62,69.59,40.01,80.73,27.39,11.14,28.49,24.32,13.22,31.28-15.27,6.96-49.87-21.44-55.19,14.42l92.39.99,17.1-46.69-35.33-25.92-7.61-1.24c-13.11-2.15-24.29-10.7-29.78-22.8l-19.39-42.69Z"/><rect class="cls-12_team-presentation-3-40-3ad7a targetColor" x="264.38" y="243.62" width="74.86" height="32.43" style="fill: rgb(104, 225, 253);"/><rect class="cls-1_team-presentation-3-40-3ad7a" x="112.77" y="153.04" width="92.48" height="26.4"/><rect class="cls-13_team-presentation-3-40-3ad7a" x="170.9" y="153.04" width="34.34" height="26.4"/><rect class="cls-5_team-presentation-3-40-3ad7a" x="112.77" y="196.02" width="92.48" height="10.49"/><rect class="cls-5_team-presentation-3-40-3ad7a" x="112.77" y="219.8" width="92.48" height="10.49"/></g><ellipse id="sd_team-presentation-3-40-3ad7a" class="cls-6_team-presentation-3-40-3ad7a" cx="252.22" cy="430.7" rx="221.32" ry="17.55"/><g id="person2_team-presentation-3-40-3ad7a"><path class="cls-12_team-presentation-3-40-3ad7a targetColor" d="m129.48,407.04s.08,6.16,4.89,8.28c4.8,2.12,4.44,7.41-.45,7.14-4.89-.27-14.39-9.95-14.39-9.95l3.53-8.92,6.43,3.45Z" style="fill: rgb(104, 225, 253);"/><path class="cls-13_team-presentation-3-40-3ad7a" d="m110.55,342.38s28.68,1.27,25.55,20.72c-3.12,19.45-15.77,40.49-15.77,40.49l11.02,4.61s21.94-25.13,24.02-56.12c2.08-30.99-41.73-24.09-44.82-9.7Z"/><path class="cls-7_team-presentation-3-40-3ad7a" d="m110.55,342.38s28.68,1.27,25.55,20.72c-3.12,19.45-15.77,40.49-15.77,40.49l11.02,4.61s21.94-25.13,24.02-56.12c2.08-30.99-41.73-24.09-44.82-9.7Z"/><path class="cls-12_team-presentation-3-40-3ad7a targetColor" d="m152.52,408.38s.08,6.16,4.89,8.28c4.8,2.12,4.44,7.41-.45,7.14s-14.39-9.95-14.39-9.95l3.53-8.92,6.43,3.45Z" style="fill: rgb(104, 225, 253);"/><rect class="cls-14_team-presentation-3-40-3ad7a" x="88.34" y="351.04" width="6.48" height="55.79" transform="translate(183.16 757.88) rotate(-180)"/><rect class="cls-2_team-presentation-3-40-3ad7a" x="88.34" y="351.04" width="6.48" height="55.79" transform="translate(183.16 757.88) rotate(-180)"/><path class="cls-14_team-presentation-3-40-3ad7a" d="m70.14,215.8s-5.94-31.91-34.58-17.47c-21.12,10.64-.49,95.51,11.81,139.39,4.33,15.44,18.42,26.09,34.45,26.09h40.4c12.35,0,14.55-17.61,2.59-20.66-.23-.06-.47-.12-.71-.17-6.96-1.59-15.13-2.88-22.58-3.86-12.96-1.71-22.96-12.24-23.94-25.27l-7.43-98.04Z"/><polygon class="cls-14_team-presentation-3-40-3ad7a" points="94.82 406.84 117.98 425.11 66.41 425.11 88.34 406.84 94.82 406.84"/><polygon class="cls-7_team-presentation-3-40-3ad7a" points="94.82 406.84 117.98 425.11 66.41 425.11 88.34 406.84 94.82 406.84"/><path class="cls-3_team-presentation-3-40-3ad7a" d="m86.73,172.16s3.98,6.22,5.15,11.13c.48,1.99-.77,4.02-2.77,4.47-2.48.56-6,.59-8.54-2.49l-4.95-4.69s-3-3.05-.7-7.63c2.3-4.59,9.57-4.7,11.8-.79Z"/><polygon class="cls-3_team-presentation-3-40-3ad7a" points="78.22 179.07 77.26 203.26 90.62 202.84 85.95 185.4 78.22 179.07"/><path class="cls-3_team-presentation-3-40-3ad7a" d="m156.12,312.31s12.74,1.21,10.11,8.58c-2.62,7.37-11.83-1.34-11.83-1.34l1.72-7.24Z"/><path class="cls-7_team-presentation-3-40-3ad7a" d="m156.12,312.31s12.74,1.21,10.11,8.58c-2.62,7.37-11.83-1.34-11.83-1.34l1.72-7.24Z"/><path class="cls-13_team-presentation-3-40-3ad7a" d="m85.25,173.28c-1.11.66-3.21,1.75-6.28,2.69,0,0,3.54,1.78,3.14,5.99s-4.44,4.58-4.44,4.58l-4.29-8.46c-1.33-2.43-1.24-5.39.27-7.71.61-.95,1.32-1.94,2.09-2.84,1.91-2.24,6.3-2.48,7.62-5.25.58-1.21,2.25-1.36,3.04-.28,1.72,2.36,3.37,6.62.64,9.83-.5.59-1.12,1.05-1.78,1.44Z"/><path class="cls-3_team-presentation-3-40-3ad7a" d="m82.71,181.4s-1.37-2.49-3.16-1.31c-1.79,1.19.16,4.8,2.91,3.79l.25-2.48Z"/><path class="cls-3_team-presentation-3-40-3ad7a" d="m89.04,176.21l3.14,1.57c.78.39.89,1.45.21,1.99l-2.26,1.78-1.09-5.34Z"/><path class="cls-12_team-presentation-3-40-3ad7a targetColor" d="m68.27,219.91c4.28-14.93,24.42-17.28,31.8-3.61.43.8.86,1.64,1.28,2.53,6.22,13.17,5.32,37.64,3.72,54.41-1.01,10.58,5.34,20.47,15.36,24.01l36.21,12.77-1.72,10.75-50.06-9.88c-12.61-2.49-22.96-11.42-27.35-23.5-6.9-19.03-14.89-47.79-9.24-67.48Z" style="fill: rgb(104, 225, 253);"/><path class="cls-7_team-presentation-3-40-3ad7a" d="m68.27,219.91c4.28-14.93,24.42-17.28,31.8-3.61.43.8.86,1.64,1.28,2.53,6.22,13.17,5.32,37.64,3.72,54.41-1.01,10.58,5.34,20.47,15.36,24.01l36.21,12.77-1.72,10.75-50.06-9.88c-12.61-2.49-22.96-11.42-27.35-23.5-6.9-19.03-14.89-47.79-9.24-67.48Z"/><path class="cls-9_team-presentation-3-40-3ad7a" d="m87.14,189.18s-2.51-.21-4.6-2.05c0,0,.71,4.37,6.05,8.14l-1.46-6.09Z"/><path class="cls-12_team-presentation-3-40-3ad7a targetColor" d="m77.26,203.26l13.37-.42s29.32,6.31,36.5,43.48c7.19,37.16-13.32,70.54-13.32,70.54l-42.27.36s-55.9-107.67,5.72-113.96Z" style="fill: rgb(104, 225, 253);"/><path class="cls-7_team-presentation-3-40-3ad7a" d="m70.37,219.15s-20.06,9.97-9.98,54.94c7.4,32.99,20.39,43.13,20.39,43.13l22.88-.73-11.47-56.46-21.83-40.87Z"/><polygon class="cls-14_team-presentation-3-40-3ad7a" points="176.67 331.28 202.23 278.56 195.28 275.62 171.9 321.57 130.55 317.27 129.6 322.27 176.67 331.28"/><path class="cls-13_team-presentation-3-40-3ad7a" d="m71.53,317.22s.58,24.19,16.95,26.28c16.37,2.08,53.87-10.52,58.56,9.9,4.69,20.41-4.65,52.9-4.65,52.9l11.43,3.2s25.65-49.09,10.55-72.37c-15.1-23.28-50.55-20.26-50.55-20.26l-42.27.36Z"/><path class="cls-12_team-presentation-3-40-3ad7a targetColor" d="m67.07,225.49c4.28-14.93,24.42-17.28,31.8-3.61.43.8.86,1.64,1.28,2.53,6.22,13.17,5.32,37.64,3.72,54.41-1.01,10.58,5.34,20.47,15.36,24.01l36.21,12.77-1.72,10.75-50.06-9.88c-12.61-2.49-22.96-11.42-27.35-23.5-6.9-19.03-14.89-47.79-9.24-67.48Z" style="fill: rgb(104, 225, 253);"/><path class="cls-2_team-presentation-3-40-3ad7a" d="m67.07,225.49c4.28-14.93,24.42-17.28,31.8-3.61.43.8.86,1.64,1.28,2.53,6.22,13.17,5.32,37.64,3.72,54.41-1.01,10.58,5.34,20.47,15.36,24.01l36.21,12.77-1.72,10.75-50.06-9.88c-12.61-2.49-22.96-11.42-27.35-23.5-6.9-19.03-14.89-47.79-9.24-67.48Z"/><path class="cls-3_team-presentation-3-40-3ad7a" d="m155.08,317.87s13.1,2.47,10.47,9.84-11.83-1.34-11.83-1.34l1.36-8.49Z"/></g><g id="person1_team-presentation-3-40-3ad7a"><path class="cls-12_team-presentation-3-40-3ad7a targetColor" d="m347.48,408.38s-.08,6.16-4.89,8.28c-4.8,2.12-4.44,7.41.45,7.14,4.89-.27,14.39-9.95,14.39-9.95l-3.53-8.92-6.43,3.45Z" style="fill: rgb(104, 225, 253);"/><path class="cls-12_team-presentation-3-40-3ad7a targetColor" d="m310.31,409.16s-4.47,4.24-9.34,2.28c-4.88-1.96-8.4,2-4.79,5.31s17.17,3.36,17.17,3.36l3.92-8.76-6.96-2.19Z" style="fill: rgb(104, 225, 253);"/><rect class="cls-14_team-presentation-3-40-3ad7a" x="405.18" y="351.04" width="6.48" height="55.79"/><rect class="cls-2_team-presentation-3-40-3ad7a" x="405.18" y="351.04" width="6.48" height="55.79"/><path class="cls-14_team-presentation-3-40-3ad7a" d="m429.86,215.8s5.94-31.91,34.58-17.47c21.12,10.64.49,95.51-11.81,139.39-4.33,15.44-18.42,26.09-34.45,26.09h-40.4c-12.35,0-14.55-17.61-2.59-20.66.23-.06.47-.12.71-.17,6.96-1.59,15.13-2.88,22.58-3.86,12.96-1.71,22.96-12.24,23.94-25.27l7.43-98.04Z"/><polygon class="cls-14_team-presentation-3-40-3ad7a" points="405.18 406.84 382.02 425.11 433.59 425.11 411.66 406.84 405.18 406.84"/><polygon class="cls-7_team-presentation-3-40-3ad7a" points="405.18 406.84 382.02 425.11 433.59 425.11 411.66 406.84 405.18 406.84"/><path class="cls-3_team-presentation-3-40-3ad7a" d="m413.27,172.16s-3.98,6.22-5.15,11.13c-.48,1.99.77,4.02,2.77,4.47,2.48.56,6,.59,8.54-2.49l4.95-4.69s3-3.05.7-7.63c-2.3-4.59-9.57-4.7-11.8-.79Z"/><polygon class="cls-3_team-presentation-3-40-3ad7a" points="421.78 179.07 422.74 203.26 409.38 202.84 414.05 185.4 421.78 179.07"/><path class="cls-13_team-presentation-3-40-3ad7a" d="m406.17,346.62s-53.99,9.78-86.69,66.54l-11.8-4.55s22.55-66.98,70.37-73.64c47.82-6.66,28.13,11.66,28.13,11.66Z"/><path class="cls-7_team-presentation-3-40-3ad7a" d="m406.17,346.62s-53.99,9.78-86.69,66.54l-11.8-4.55s22.55-66.98,70.37-73.64c47.82-6.66,28.13,11.66,28.13,11.66Z"/><path class="cls-3_team-presentation-3-40-3ad7a" d="m410.96,176.21l-3.14,1.57c-.78.39-.89,1.45-.21,1.99l2.26,1.78,1.09-5.34Z"/><path class="cls-3_team-presentation-3-40-3ad7a" d="m433.81,216.66c-20.3,6.21-44.32,27.34-60.98,23.91-24.75-5.1-39.59-47.23-39.59-47.23,0,0-3.5-15.79-9.96-17.14-6.46-1.35-.91,9.03-.91,9.03,0,0-7.45,5.58,0,12.87,24.19,114.62,86.23,69.53,115.4,54.27,4.49-2.35-19.03-9.83-16.12-12.08,14.37-11.13,29.54-28.95,12.15-23.64Z"/><path class="cls-7_team-presentation-3-40-3ad7a" d="m433.81,216.66c-20.3,6.21-44.32,27.34-60.98,23.91-24.75-5.1-39.59-47.23-39.59-47.23,0,0-3.5-15.79-9.96-17.14-6.46-1.35-.91,9.03-.91,9.03,0,0-7.45,5.58,0,12.87,24.19,114.62,86.23,69.53,115.4,54.27,4.49-2.35-19.03-9.83-16.12-12.08,14.37-11.13,29.54-28.95,12.15-23.64Z"/><path class="cls-9_team-presentation-3-40-3ad7a" d="m412.86,189.18s2.51-.21,4.6-2.05c0,0-.71,4.37-6.05,8.14l1.46-6.09Z"/><path class="cls-12_team-presentation-3-40-3ad7a targetColor" d="m422.74,203.26l-13.37-.42s-29.32,6.31-36.5,43.48c-7.19,37.16,13.32,70.54,13.32,70.54l42.27.36s55.9-107.67-5.72-113.96Z" style="fill: rgb(104, 225, 253);"/><path class="cls-7_team-presentation-3-40-3ad7a" d="m405.18,221.64s-21.25,18.11-18.39,46.31c2.86,28.21-12.63,17.98-12.63,17.98,0,0,3.41,14.17,5.57,17.52,2.16,3.34,40.69-40.9,40.69-40.9l-15.23-40.9Z"/><path class="cls-13_team-presentation-3-40-3ad7a" d="m428.47,317.22s-.58,26.74-16.95,28.82c-16.37,2.08-53.87-13.07-58.56,7.35-4.69,20.41,4.65,52.9,4.65,52.9l-11.43,3.2s-25.65-49.09-10.55-72.37c15.1-23.28,50.55-20.26,50.55-20.26l42.27.36Z"/><path class="cls-13_team-presentation-3-40-3ad7a" d="m413.27,172.16l-1.8-6.75c-.82-3.08,2.34-5.7,5.21-4.33l8.24,3.95c4.76,2.28,6.4,8.25,3.48,12.65l-6.29,9.45-1.69-2.79.2-1.48c.61-4.62-2.16-9.02-6.59-10.46l-.74-.24Z"/><path class="cls-3_team-presentation-3-40-3ad7a" d="m418.29,179.15s3.13-1.37,4.92-.19.39,6.34-5.75,3.39l.83-3.21Z"/><path class="cls-3_team-presentation-3-40-3ad7a" d="m402.19,230.68c5.4-17.36,31.12-14.32,32.23,3.83.22,3.68.11,7.98-.48,13.01-3.82,32.7-1.5,109.35-109.83,64.79l2.18-11.67s43.17,11.47,61.32-6.11c12.22-11.83,8.28-43.58,14.58-63.85Z"/><path class="cls-12_team-presentation-3-40-3ad7a targetColor" d="m395.24,267l39.29,5.51s14.73-48.03-12.87-56.21c-27.6-8.18-26.42,50.69-26.42,50.69Z" style="fill: rgb(104, 225, 253);"/><path class="cls-2_team-presentation-3-40-3ad7a" d="m395.24,267l39.29,5.51s14.73-48.03-12.87-56.21c-27.6-8.18-26.42,50.69-26.42,50.69Z"/><path class="cls-3_team-presentation-3-40-3ad7a" d="m326.29,300.64s-19.35-.66-16.35,7.51c3,8.18,14.17,4.15,14.17,4.15l2.18-11.67Z"/></g><g id="plant_team-presentation-3-40-3ad7a"><path class="cls-10_team-presentation-3-40-3ad7a targetColor" d="m243.82,410.34s-13.92-3.8-16.95-16.76c0,0,21.57-4.36,22.19,17.91l-5.24-1.15Z" style="fill: rgb(104, 225, 253);"/><path class="cls-11_team-presentation-3-40-3ad7a targetColor" d="m245.52,408.96s-9.73-15.38-1.17-29.76c0,0,16.4,10.42,9.12,29.79l-7.95-.03Z" style="fill: rgb(104, 225, 253);"/><path class="cls-12_team-presentation-3-40-3ad7a targetColor" d="m248.03,408.97s5.14-16.24,20.68-19.32c0,0,2.91,10.55-10.06,19.36l-10.62-.04Z" style="fill: rgb(104, 225, 253);"/><polygon class="cls-13_team-presentation-3-40-3ad7a" points="237.93 408.6 240.75 427.91 258.53 427.99 261.15 408.7 237.93 408.6"/></g></svg>