<svg version="1.1" id="Layer_1" xmlns="http://www.w3.org/2000/svg" xmlns:xlink="http://www.w3.org/1999/xlink" x="0px" y="0px" viewBox="0 0 500 500" style="width: 151px;" xml:space="preserve" data-imageid="presentation-71" imageName="Presentation" class="illustrations_image">
<style type="text/css">
	.st0_presentation-71{fill:#FFC9B0;}
	.st1_presentation-71{fill:#093F68;}
	.st2_presentation-71{fill:#68E1FD;}
	.st3_presentation-71{fill:#725858;}
	.st4_presentation-71{fill:#F56132;}
	.st5_presentation-71{fill:#70CC40;}
	.st6_presentation-71{fill:#FFFFFF;}
	.st7_presentation-71{fill:#FFBC0E;}
	.st8_presentation-71{fill:#DFEAEF;}
</style>
<g id="character_presentation-71">
	<path class="st0_presentation-71" d="M97.4,201.2v-12.7c0,0,4.6-8,3.2-9s-6.4-1.5-6.4-1.5s0.7-11.9-1.2-13.8s-5.2-2.2-5.5,0s0,12.9,0,12.9&#10;&#9;&#9;s-8.4,2.3-9.6,7.3s4.1,9.3,4.6,11.8s0,10.7,0,10.7L97.4,201.2z"/>
	<path class="st1_presentation-71" d="M82.5,208.7c-1,0-1.8-0.8-1.8-1.8c0,0,0-0.1,0-0.1c0.2-3.1,0.3-8.6,0-10.2c-0.4-0.9-0.9-1.7-1.4-2.4&#10;&#9;&#9;c-1.8-2.6-4.2-6-3.2-10.2c1.2-4.7,6.8-7.2,9.5-8.2c-0.1-3.1-0.2-10,0.1-11.9c0.2-1.3,1.1-2.4,2.4-2.8c2.2-0.5,4.6,0.2,6.2,1.8&#10;&#9;&#9;c2,1.9,2.1,8.7,1.9,13.5c1.8,0.3,4.4,0.8,5.6,1.6c0.9,0.6,2.7,1.9-2.4,11v12.2c0,0.7-0.5,1.4-1.2,1.7l-14.9,5.7&#10;&#9;&#9;C82.9,208.7,82.7,208.7,82.5,208.7z M89.5,164.5c-0.1,0-0.2,0-0.3,0.1c-0.2,1.4-0.1,8.4,0.1,12.5c0,0.8-0.5,1.6-1.3,1.8&#10;&#9;&#9;c-2,0.6-7.5,2.8-8.3,6c-0.6,2.5,1.1,5,2.6,7.2c0.9,1.1,1.6,2.4,2,3.7c0.3,2.8,0.4,5.6,0.2,8.4l11.2-4.2v-11.5&#10;&#9;&#9;c0-0.3,0.1-0.6,0.2-0.9c1.3-2.2,2.4-4.5,3.2-6.8c-1.6-0.5-3.3-0.8-5-1c-1-0.1-1.7-0.9-1.6-1.9c0.3-5.6,0-11.4-0.7-12.4&#10;&#9;&#9;C91,164.9,90.3,164.6,89.5,164.5L89.5,164.5z M97.4,201.2L97.4,201.2z"/>
	<path class="st0_presentation-71" d="M223.7,242c3.7,3.9,7.1,8.2,10.5,12.4l15.7-14.2c4.6-4.1,10.4-8.3,9.9-15.3c-0.3-3.5-2.5-6.5-4.8-9.2&#10;&#9;&#9;c-0.5-0.6-1.1-1.2-1.8-1.1c-0.4,0.1-0.8,0.4-1.1,0.7l-5.2,5.3c-2.1,1.9-3.9,4.1-5.2,6.6c0.1-3,0.1-6.2-1.6-8.6&#10;&#9;&#9;c-0.2-0.4-0.7-0.7-1.1-0.8c-0.7,0-1,0.8-1.2,1.4c-2.1,6.8-3,12.9-8.2,17.6L223.7,242z"/>
	<path class="st1_presentation-71" d="M234.2,256.2h-0.1c-0.5,0-1-0.3-1.3-0.7l-0.5-0.6c-3.2-3.9-6.5-7.9-9.9-11.6c-0.7-0.7-0.7-1.9,0.1-2.5&#10;&#9;&#9;c0,0,0,0,0,0l5.8-5.3c3.9-3.5,5.1-8,6.6-13.1c0.3-1.2,0.7-2.4,1.1-3.6c0.7-2.3,2.1-2.7,2.9-2.7c1.1,0,2.1,0.6,2.7,1.6&#10;&#9;&#9;c0.9,1.3,1.4,2.7,1.7,4.2c0.8-0.9,1.6-1.7,2.4-2.5l5.2-5.2c0.5-0.6,1.3-1.1,2.1-1.2c1.9-0.3,3.1,1.2,3.5,1.7&#10;&#9;&#9;c2.4,2.8,4.9,6.1,5.2,10.2c0.5,7.2-4.5,11.6-9,15.5c-0.5,0.4-1,0.9-1.5,1.3l-15.7,14.2C235.1,256,234.6,256.2,234.2,256.2z&#10;&#9;&#9; M226.2,242.1c2.8,3.1,5.5,6.4,8.2,9.6l10.9-9.8l3.5-3.1c0.5-0.4,1-0.9,1.5-1.3c4.2-3.7,8.2-7.1,7.7-12.5c-0.2-3.1-2.4-5.8-4.4-8.2&#10;&#9;&#9;l-0.2-0.3l0,0l-5.2,5.2c-2,1.8-3.6,3.8-4.9,6.1c-0.4,0.9-1.5,1.3-2.4,0.9c-0.7-0.3-1.1-1-1-1.7c0.2-2.2,0-4.4-0.7-6.5&#10;&#9;&#9;c-0.3,0.9-0.5,1.8-0.8,2.6c-1.6,5.4-3,10.6-7.7,14.8L226.2,242.1z"/>
	<path class="st1_presentation-71" d="M240.7,240.9c-1,0-1.8-0.8-1.8-1.8c0-0.4,0.1-0.8,0.4-1.1c2.2-2.8,2.5-6.7,0.8-9.9c-0.5-0.9-0.3-2,0.6-2.5&#10;&#9;&#9;c0.9-0.5,2-0.3,2.5,0.6c2.5,4.4,2.1,9.9-1,13.9C241.8,240.6,241.3,240.9,240.7,240.9z"/>
	
		<rect x="106.7" y="339.2" transform="matrix(1.867393e-02 -0.9998 0.9998 1.867393e-02 -208.4075 488.8587)" class="st0_presentation-71" width="76.3" height="22.8"/>
	<path class="st1_presentation-71" d="M155.5,390.8L155.5,390.8l-22.8-0.4c-1,0-1.8-0.8-1.8-1.9l1.4-76.3c0-1,0.8-1.8,1.8-1.8c0,0,0,0,0,0l22.8,0.4&#10;&#9;&#9;c1,0,1.8,0.8,1.8,1.9l-1.5,76.3C157.3,390,156.5,390.8,155.5,390.8C155.5,390.8,155.5,390.8,155.5,390.8L155.5,390.8z M134.6,386.8&#10;&#9;&#9;l19.1,0.4l1.4-72.6l-19.2-0.4L134.6,386.8z"/>
	
		<rect x="138.1" y="339.2" transform="matrix(1.867393e-02 -0.9998 0.9998 1.867393e-02 -177.6428 520.2142)" class="st0_presentation-71" width="76.3" height="22.8"/>
	<path class="st1_presentation-71" d="M186.9,390.8L186.9,390.8l-22.8-0.4c-1,0-1.8-0.8-1.8-1.9l1.4-76.3c0-0.5,0.2-0.9,0.6-1.3&#10;&#9;&#9;c0.3-0.3,0.8-0.5,1.3-0.5l22.8,0.4c1,0,1.8,0.8,1.8,1.8c0,0,0,0,0,0l-1.4,76.3C188.7,390,187.9,390.8,186.9,390.8&#10;&#9;&#9;C186.9,390.8,186.9,390.8,186.9,390.8L186.9,390.8z M165.9,386.8l19.1,0.4l1.4-72.6l-19.2-0.4L165.9,386.8z"/>
	<polygon class="st1_presentation-71" points="191.6,276.7 197.3,369.7 126.1,369.7 130.5,276.7 &#9;"/>
	<path class="st1_presentation-71" d="M197.3,371.5h-71.2c-0.5,0-1-0.2-1.3-0.6c-0.3-0.4-0.5-0.8-0.5-1.3l4.4-93.1c0-1,0.8-1.7,1.8-1.7h61.1&#10;&#9;&#9;c1,0,1.7,0.7,1.8,1.7l5.7,93.1c0,0.5-0.1,1-0.5,1.4C198.3,371.3,197.8,371.6,197.3,371.5z M128,367.9h67.4l-5.5-89.5h-57.7&#10;&#9;&#9;L128,367.9z"/>
	<polygon class="st1_presentation-71" points="155.5,389 155.5,404.4 115.6,404.4 132.7,388.5 &#9;"/>
	<path class="st1_presentation-71" d="M155.5,406.2h-39.9c-1,0-1.8-0.8-1.8-1.8c0-0.5,0.2-1,0.6-1.3l17.1-15.9c0.4-0.3,0.8-0.5,1.3-0.5l22.8,0.4&#10;&#9;&#9;c1,0,1.8,0.8,1.8,1.8v15.4C157.3,405.4,156.5,406.2,155.5,406.2C155.5,406.2,155.5,406.2,155.5,406.2z M120.2,402.6h33.4v-11.9&#10;&#9;&#9;l-20.3-0.4L120.2,402.6z"/>
	<polygon class="st1_presentation-71" points="164.1,389 164.1,404.4 204,404.4 186.9,388.5 &#9;"/>
	<path class="st1_presentation-71" d="M204,406.2h-39.9c-1,0-1.8-0.8-1.8-1.8V389c0-1,0.8-1.8,1.8-1.8l22.8-0.4c0.5,0,0.9,0.2,1.3,0.5l17.1,15.9&#10;&#9;&#9;c0.7,0.7,0.7,1.9,0,2.6C204.9,406,204.5,406.2,204,406.2z M165.9,402.6h33.4l-13.2-12.2l-20.3,0.4L165.9,402.6z"/>
	<path class="st2_presentation-71 targetColor" d="M232.2,234.3c0,0-16.2,10.9-19.2,12.4c-5.9-6-20.1-22.8-24.9-26.6s-15.8-6.2-19-6.2H153&#10;&#9;&#9;c-3.2,0-17.8,3.4-20.3,4.4c-8.5,3.4-17.3,6.1-26.2,8.1c-2.4-9.2-4.9-16.2-7.6-30.4l-16.7,5.4c0,17.7,1.3,51.3,18.8,51.3&#10;&#9;&#9;c6.7,0,27.5,0.7,29.5,0.1v23.8h61.1v-22.1c8.2,8.9,15.2,13.7,20.5,14.9s11.5-2.9,28.6-20.5L232.2,234.3z" style="fill: rgb(104, 225, 253);"/>
	<path class="st1_presentation-71" d="M191.6,278.5h-61.1c-1,0-1.8-0.8-1.8-1.8v-21.8c-3,0.1-8.7,0.1-18.1-0.1c-3.9-0.1-7.5-0.1-9.6-0.1l0,0&#10;&#9;&#9;c-3.8,0-7.4-1.5-10-4.2c-7.1-7.1-10.6-23.1-10.6-48.9c0-0.8,0.5-1.5,1.3-1.7l16.7-5.4c1-0.3,2,0.2,2.3,1.2c0,0.1,0,0.1,0.1,0.2&#10;&#9;&#9;c2,10.4,3.9,17,5.7,23.4c0.5,1.7,1,3.4,1.4,5.2c8.3-2,16.4-4.5,24.3-7.6c2.4-1,17.4-4.5,21-4.5h16c3.5,0,15,2.5,20.1,6.5&#10;&#9;&#9;c3.1,2.4,9.7,9.8,16,16.8c3.1,3.4,6,6.6,8.1,8.9c3.9-2.3,13.9-9,17.9-11.6c0.4-0.3,0.9-0.4,1.4-0.3c0.5,0.1,0.9,0.4,1.2,0.9&#10;&#9;&#9;l8.5,14.6c0.4,0.7,0.3,1.6-0.3,2.2c-17.2,17.8-24.1,22.5-30.3,21c-5.2-1.2-11.4-5.4-18.3-12.2v17.6&#10;&#9;&#9;C193.4,277.6,192.6,278.5,191.6,278.5z M132.3,274.9h57.5v-20.3c0-1,0.8-1.8,1.8-1.8c0.5,0,1,0.2,1.3,0.6&#10;&#9;&#9;c7.5,8.1,14.4,13.2,19.6,14.4c4.5,1,10.9-3.6,26-19l-6.8-11.7c-4.2,2.8-15.3,10.2-17.8,11.4c-0.7,0.4-1.6,0.2-2.1-0.4&#10;&#9;&#9;c-2.2-2.3-5.6-6-9.2-10c-6-6.6-12.7-14.1-15.6-16.4c-4.2-3.3-14.8-5.8-17.9-5.8H153c-2.9,0-17.1,3.3-19.6,4.2&#10;&#9;&#9;c-8.6,3.4-17.5,6.1-26.5,8.2c-1,0.2-1.9-0.3-2.2-1.3c-0.6-2.4-1.3-4.6-1.9-6.9c-1.7-6-3.4-12.2-5.3-21.6L84,202.8&#10;&#9;&#9;c0,10.2,0.4,35.9,9.5,45c1.9,2.1,4.7,3.2,7.5,3.2c2.1,0,5.7,0.1,9.7,0.1c7.1,0.1,17.9,0.4,19.3,0c0.6-0.1,1.1,0,1.6,0.3&#10;&#9;&#9;c0.4,0.3,0.7,0.9,0.7,1.4L132.3,274.9z"/>
	<circle class="st3_presentation-71" cx="124.1" cy="120.8" r="25.2"/>
	<path class="st1_presentation-71" d="M124.1,147.8c-14.9,0-27-12.1-27-27s12.1-27,27-27s27,12.1,27,27S139,147.8,124.1,147.8z M124.1,97.4&#10;&#9;&#9;c-12.9,0-23.4,10.5-23.4,23.4s10.5,23.4,23.4,23.4c12.9,0,23.4-10.5,23.4-23.4C147.5,107.9,137,97.4,124.1,97.4z"/>
	<ellipse class="st3_presentation-71" cx="162.7" cy="154.6" rx="43.2" ry="46.9"/>
	<path class="st1_presentation-71" d="M162.7,203.3c-24.8,0-45-21.9-45-48.7s20.2-48.7,45-48.7s45,21.9,45,48.7S187.5,203.3,162.7,203.3z&#10;&#9;&#9; M162.7,109.5c-22.8,0-41.4,20.2-41.4,45.1s18.6,45.1,41.4,45.1s41.4-20.2,41.4-45.1S185.5,109.5,162.7,109.5z"/>
	<polygon class="st4_presentation-71" points="156.5,216.4 162.5,261.7 168.9,216.4 &#9;"/>
	<path class="st1_presentation-71" d="M162.5,263.3L162.5,263.3c-0.8,0-1.5-0.6-1.6-1.4l-6-45.2c-0.1-0.9,0.5-1.7,1.4-1.8c0.1,0,0.2,0,0.2,0h12.3&#10;&#9;&#9;c0.5,0,0.9,0.2,1.2,0.6c0.3,0.4,0.5,0.8,0.4,1.3l-6.3,45.2C164,262.7,163.3,263.3,162.5,263.3z M158.4,218.1l4.2,31.6l4.4-31.6&#10;&#9;&#9;L158.4,218.1z"/>
	<path class="st0_presentation-71" d="M156.5,209.4h12.3l0,0v9.4c0,1.6-1.3,2.9-2.9,2.9h-6.6c-1.6,0-2.9-1.3-2.9-2.9V209.4L156.5,209.4z"/>
	<path class="st1_presentation-71" d="M163.6,223.5h-1.9c-3.9,0-7-3.1-7-7v-7.1c0-1,0.8-1.8,1.8-1.8h12.3c1,0,1.8,0.8,1.8,1.8v7.1&#10;&#9;&#9;C170.7,220.4,167.5,223.5,163.6,223.5z M158.3,211.2v5.3c0,1.9,1.5,3.4,3.4,3.4h1.9c1.9,0,3.4-1.5,3.4-3.4v-5.3H158.3z"/>
	<ellipse class="st0_presentation-71" cx="127.4" cy="177.3" rx="12" ry="10.3"/>
	<path class="st1_presentation-71" d="M127.4,189.4c-7.6,0-13.8-5.4-13.8-12.1s6.2-12.1,13.8-12.1s13.8,5.4,13.8,12.1S135,189.4,127.4,189.4z&#10;&#9;&#9; M127.4,168.8c-5.6,0-10.2,3.8-10.2,8.5s4.6,8.5,10.2,8.5s10.2-3.8,10.2-8.5S133,168.8,127.4,168.8z"/>
	<ellipse class="st0_presentation-71" cx="197.3" cy="177.3" rx="12" ry="10.3"/>
	<path class="st1_presentation-71" d="M197.3,189.4c-7.6,0-13.8-5.4-13.8-12.1s6.2-12.1,13.8-12.1s13.8,5.4,13.8,12.1S204.9,189.4,197.3,189.4z&#10;&#9;&#9; M197.3,168.8c-5.6,0-10.2,3.8-10.2,8.5s4.6,8.5,10.2,8.5s10.2-3.8,10.2-8.5S202.9,168.8,197.3,168.8z"/>
	<path class="st0_presentation-71" d="M184.7,146.7c-4.4-0.1-8.8-1.1-12.8-2.9c-6.3-2.9-11.7-7.5-16.7-12.3c-3.3,9.1-12.5,14.4-21,19&#10;&#9;&#9;c-1.8,1-4.2,1.9-5.8,0.6c-1.8,7.6-1.8,15.9-1.8,23.7c0,20,16.2,34.3,36.1,34.3s36.1-14.4,36.1-34.3v-28.1&#10;&#9;&#9;C194.1,146.7,189.4,147,184.7,146.7z"/>
	<path class="st1_presentation-71" d="M162.7,211c-21.6,0-37.9-15.5-37.9-36.1c0-7.1,0-16.1,1.9-24.1c0.1-0.6,0.6-1.1,1.2-1.3&#10;&#9;&#9;c0.6-0.2,1.2-0.1,1.7,0.3c0.4,0.3,1.4,0.5,3.8-0.8c8.9-4.8,17.2-9.8,20.2-18c0.2-0.6,0.7-1,1.3-1.1c0.6-0.1,1.2,0,1.7,0.4&#10;&#9;&#9;c4.5,4.3,9.9,9,16.2,11.9c3.8,1.7,8,2.6,12.1,2.8l0,0c3,0.2,6.1,0.1,9.2,0.1c1.6,0,3.3-0.1,4.9-0.1c1,0,1.8,0.8,1.8,1.8v28.1&#10;&#9;&#9;C200.6,195.4,184.3,211,162.7,211z M129.7,153.6c-1.4,7.1-1.4,14.9-1.4,21.3c0,18.5,14.8,32.5,34.3,32.5s34.3-14,34.3-32.5v-26.3&#10;&#9;&#9;l-3,0.1c-3.1,0-6.3,0.1-9.4-0.1l0,0c-4.6-0.1-9.2-1.2-13.5-3.1c-5.9-2.8-11-6.9-15.3-10.8c-4,7.9-12.1,12.8-20.8,17.5&#10;&#9;&#9;C133.4,153.1,131.6,153.6,129.7,153.6L129.7,153.6z"/>
	<circle class="st1_presentation-71" cx="145.9" cy="169.6" r="3.4"/>
	<circle class="st1_presentation-71" cx="180.5" cy="169.6" r="3.4"/>
	<path class="st1_presentation-71" d="M162.5,182.6c-1.1,0-2.3-0.1-3.4-0.3c-1-0.1-1.7-1-1.6-2s1-1.7,2-1.6c0.1,0,0.1,0,0.2,0c1.3,0.2,2.7,0.3,4,0.2&#10;&#9;&#9;c-0.6-2.4-1.5-4.7-2.7-6.9c-0.5-0.9-0.1-2,0.8-2.4c0.9-0.5,2-0.1,2.4,0.8c1.9,3.6,3.9,8.3,2.9,10.5c-0.3,0.7-1,1.3-1.7,1.5&#10;&#9;&#9;C164.4,182.5,163.5,182.6,162.5,182.6z"/>
	<path class="st1_presentation-71" d="M152.8,161L152.8,161h-16c-1.6,0-2.9-1.3-2.9-2.9c0-1.6,1.3-2.9,2.9-2.9l0,0h16c1.6,0,2.9,1.3,2.9,2.9&#10;&#9;&#9;C155.7,159.7,154.4,161,152.8,161z"/>
	<path class="st1_presentation-71" d="M175.5,161.4c-1.6,0-2.9-1.2-3-2.8c0-1.6,1.2-2.9,2.8-3l15.9-0.8c1.6,0,2.9,1.2,3,2.8c0,1.5-1.1,2.8-2.7,2.9&#10;&#9;&#9;l-15.9,0.8L175.5,161.4z"/>
	<path class="st1_presentation-71" d="M165,196.6c-7.8,0-16-4.2-16.5-4.5c-0.9-0.5-1.2-1.6-0.7-2.5c0.5-0.8,1.5-1.2,2.4-0.7&#10;&#9;&#9;c4.2,2.2,16.2,6.7,21.6,1.9c0.7-0.7,1.9-0.6,2.6,0.1c0,0,0,0,0,0c0.7,0.8,0.6,1.9-0.1,2.6C171.6,195.6,168.3,196.7,165,196.6z"/>
	<path class="st1_presentation-71" d="M130.5,254.6c-0.7,0-1.3-0.4-1.6-1c-4.7-9.4,0.5-24,0.7-24.6c0.3-1,1.3-1.5,2.3-1.2s1.5,1.3,1.2,2.3&#10;&#9;&#9;c0,0.1,0,0.1-0.1,0.2c0,0.1-4.9,13.7-0.9,21.7c0.4,0.9,0.1,2-0.8,2.4C131.1,254.6,130.8,254.6,130.5,254.6L130.5,254.6z"/>
	<path class="st2_presentation-71 targetColor" d="M189.1,231.7c0,0,5.5,6,4.9,12.6c-0.3,3.5-1.2,6.9-2.4,10.2" style="fill: rgb(104, 225, 253);"/>
	<path class="st1_presentation-71" d="M191.6,256.3c-0.2,0-0.5,0-0.7-0.1c-0.9-0.4-1.4-1.4-1-2.3c0,0,0,0,0,0c1.2-3.1,2-6.4,2.3-9.7&#10;&#9;&#9;c0.5-5.7-4.4-11.1-4.5-11.2c-0.7-0.7-0.6-1.9,0.1-2.6s1.9-0.6,2.6,0.1c0.2,0.3,6.1,6.7,5.4,14c-0.4,3.7-1.2,7.3-2.6,10.8&#10;&#9;&#9;C193,255.9,192.3,256.3,191.6,256.3z"/>
	<path class="st1_presentation-71" d="M90.4,192.4c-0.7,0-1.3-0.4-1.7-1c-0.8-1.4-0.3-3.3,0.6-5.1c-1.5,0-3-0.7-3.9-1.9c-0.7-0.8-0.9-1.9-0.6-2.9&#10;&#9;&#9;c0.9-2.9,6.6-4.6,8.9-5.2c1-0.3,2,0.3,2.2,1.2c0.3,1-0.3,2-1.2,2.2c0,0-0.1,0-0.1,0c-2.2,0.5-4.3,1.4-6.2,2.6c1.3,0.9,4-0.6,4-0.7&#10;&#9;&#9;c0.9-0.5,2-0.3,2.5,0.6c0.4,0.6,0.3,1.5-0.1,2.1c-1.6,2-3,4.6-2.9,5.4c0.5,0.9,0.1,1.9-0.7,2.4c0,0,0,0,0,0&#10;&#9;&#9;C90.9,192.3,90.7,192.4,90.4,192.4z"/>
</g>
<g id="line_presentation-71">
	<path class="st1_presentation-71" d="M438.7,406.2H61.3c-1,0-1.8-0.8-1.8-1.8c0-1,0.8-1.8,1.8-1.8c0,0,0,0,0,0h377.4c1,0,1.8,0.8,1.8,1.8&#10;&#9;&#9;C440.5,405.4,439.7,406.2,438.7,406.2C438.7,406.2,438.7,406.2,438.7,406.2z"/>
</g>
<g id="table_presentation-71">
	<rect x="340.5" y="262.5" class="st2_presentation-71 targetColor" width="11.5" height="132.1" style="fill: rgb(104, 225, 253);"/>
	<path class="st1_presentation-71" d="M351.9,396.4h-11.5c-1,0-1.8-0.8-1.8-1.8c0,0,0,0,0,0V262.5c0-1,0.8-1.8,1.8-1.8c0,0,0,0,0,0h11.5&#10;&#9;&#9;c1,0,1.8,0.8,1.8,1.8v132.1C353.8,395.6,352.9,396.4,351.9,396.4z M342.3,392.8h7.8V264.3h-7.8V392.8z"/>
	<path class="st2_presentation-71 targetColor" d="M321.4,394.6h47c1.5,0,2.7,1.2,2.7,2.7v4.4c0,1.5-1.2,2.7-2.7,2.7h-47c-1.5,0-2.7-1.2-2.7-2.7v-4.4&#10;&#9;&#9;C318.7,395.8,319.9,394.6,321.4,394.6z" style="fill: rgb(104, 225, 253);"/>
	<path class="st1_presentation-71" d="M366.1,406.2h-42.6c-3.7,0-6.7-3-6.7-6.7s3-6.7,6.7-6.7l0,0h42.6c3.7,0,6.7,3,6.7,6.7S369.8,406.2,366.1,406.2&#10;&#9;&#9;z M323.6,396.4c-1.7,0-3.1,1.4-3.1,3.1s1.4,3.1,3.1,3.1h42.6c1.7,0,3.1-1.4,3.1-3.1s-1.4-3.1-3.1-3.1H323.6z"/>
	<path class="st2_presentation-71 targetColor" d="M266.4,252.8h156.8c1.5,0,2.7,1.2,2.7,2.7v4.4c0,1.5-1.2,2.7-2.7,2.7H266.4c-1.5,0-2.7-1.2-2.7-2.7v-4.4&#10;&#9;&#9;C263.7,254,264.9,252.8,266.4,252.8z" style="fill: rgb(104, 225, 253);"/>
	<path class="st1_presentation-71" d="M421.1,264.4H268.6c-3.7-0.1-6.6-3.3-6.4-7c0.1-3.5,2.9-6.3,6.4-6.4h152.5c3.7,0.1,6.6,3.3,6.4,7&#10;&#9;&#9;C427.4,261.5,424.6,264.3,421.1,264.4z M268.6,254.6c-1.7,0-3.1,1.4-3.1,3.1c0,1.7,1.4,3.1,3.1,3.1h152.5c1.7,0,3.1-1.4,3.1-3.1&#10;&#9;&#9;c0-1.7-1.4-3.1-3.1-3.1H268.6z"/>
</g>
<g id="plant_presentation-71">
	<path class="st5_presentation-71" d="M273.4,380.9c0,0-11.8-24-10.2-40.3c0,0,9.5,4.3,14.1,17c7,19.4,5.4,23.4,5.4,23.4L273.4,380.9z"/>
	<path class="st1_presentation-71" d="M282.7,382.8L282.7,382.8h-9.3c-0.7,0-1.3-0.4-1.6-1c-0.5-1-12-24.7-10.3-41.3c0.1-0.6,0.4-1.1,0.9-1.4&#10;&#9;&#9;c0.5-0.3,1.1-0.3,1.7-0.1c0.4,0.2,10.2,4.8,15,18c6.9,19,5.6,23.9,5.3,24.6C284.1,382.3,283.4,382.8,282.7,382.8z M274.6,379.1h6.4&#10;&#9;&#9;c0-2.2-0.8-8-5.4-20.9c-2-5.8-5.7-10.8-10.7-14.5C264.8,357.2,272.5,374.8,274.6,379.1L274.6,379.1z"/>
	<path class="st5_presentation-71" d="M279,379.8c0,0-8.9-34.3,3.9-57.2c0,0,7.3,8.4,9.1,28.7c0.9,9.6-0.9,19.4-5.3,28L279,379.8z"/>
	<path class="st1_presentation-71" d="M279,381.6c-0.8,0-1.6-0.6-1.8-1.4c-0.4-1.4-8.9-35.2,4-58.6c0.5-0.9,1.6-1.2,2.5-0.7c0.2,0.1,0.4,0.2,0.5,0.4&#10;&#9;&#9;c0.3,0.4,7.7,9.1,9.5,29.7c1.5,16.9-5.3,28.6-5.5,29.1c-0.3,0.5-0.8,0.9-1.5,0.9l-7.7,0.5L279,381.6z M283.1,326.1&#10;&#9;&#9;c-8.9,19.2-4.1,45.4-2.7,51.8l5.1-0.3c3.8-8.2,5.4-17.2,4.6-26.1C289,337.8,285.3,329.8,283.1,326.1L283.1,326.1z"/>
	<path class="st5_presentation-71" d="M282.8,378.7c0,0,2.8-22.9,21.2-37.8c0,0,5.5,17-9.8,39.9L282.8,378.7z"/>
	<path class="st1_presentation-71" d="M294.2,382.5c-0.1,0-0.2,0-0.3,0l-11.4-2c-0.9-0.2-1.6-1-1.5-2c0.1-1,3-23.8,21.9-39c0.8-0.6,1.9-0.5,2.5,0.3&#10;&#9;&#9;c0.1,0.2,0.3,0.4,0.3,0.6c0.2,0.7,5.5,18.1-10,41.4C295.4,382.3,294.8,382.5,294.2,382.5z M284.9,377.2l8.5,1.5&#10;&#9;&#9;c10.4-16,10.2-29,9.5-34.5C289.9,356.1,285.9,372,284.9,377.2z"/>
	<polygon class="st2_presentation-71 targetColor" points="295.5,404.4 272.2,404.4 268.8,376.1 299,376.1 &#9;" style="fill: rgb(104, 225, 253);"/>
	<path class="st1_presentation-71" d="M295.5,406.2h-23.3c-0.9,0-1.7-0.7-1.8-1.6l-3.4-28.3c-0.1-1,0.6-1.9,1.6-2c0.1,0,0.1,0,0.2,0H299&#10;&#9;&#9;c1,0,1.8,0.8,1.8,1.8c0,0.1,0,0.1,0,0.2l-3.5,28.3C297.2,405.5,296.4,406.2,295.5,406.2z M273.8,402.6h20.1l3-24.7h-26.1&#10;&#9;&#9;L273.8,402.6z"/>
</g>
<g id="device_presentation-71">
	<path class="st6_presentation-71" d="M418.5,144.8v77.4c0,7.9-6.4,14.4-14.4,14.4l0,0H283.8c-7.9,0-14.4-6.4-14.4-14.4c0,0,0,0,0,0v-77.4&#10;&#9;&#9;c0-7.9,6.4-14.4,14.4-14.4c0,0,0,0,0,0h120.3C412,130.4,418.5,136.9,418.5,144.8L418.5,144.8z"/>
	<path class="st1_presentation-71" d="M404.1,238.3H283.8c-8.9,0-16.2-7.2-16.2-16.2v-77.4c0-8.9,7.3-16.2,16.2-16.2h120.3c8.9,0,16.2,7.2,16.2,16.2&#10;&#9;&#9;v77.4C420.3,231.1,413,238.3,404.1,238.3z M283.8,132.2c-6.9,0-12.5,5.6-12.6,12.6v77.4c0,6.9,5.6,12.5,12.6,12.5h120.3&#10;&#9;&#9;c6.9,0,12.6-5.6,12.6-12.6v-77.4c0-6.9-5.6-12.5-12.6-12.6L283.8,132.2z"/>
	<polygon class="st1_presentation-71" points="329,236.5 361.7,236.5 367.2,252.9 323.5,252.9 &#9;"/>
	<path class="st1_presentation-71" d="M367.2,254.7h-43.7c-1,0-1.8-0.8-1.8-1.8c0-0.2,0-0.4,0.1-0.6l5.5-16.4c0.2-0.7,0.9-1.2,1.7-1.2h32.6&#10;&#9;&#9;c0.8,0,1.5,0.5,1.7,1.2l5.5,16.4c0.2,0.6,0.1,1.2-0.2,1.6C368.3,254.4,367.8,254.7,367.2,254.7z M326,251.1h38.7l-4.3-12.8h-30&#10;&#9;&#9;L326,251.1z"/>
	<path class="st1_presentation-71" d="M418.5,218.4v3.8c0,7.9-6.4,14.4-14.4,14.4l0,0H283.8c-7.9,0-14.4-6.4-14.4-14.4c0,0,0,0,0,0v-3.8H418.5z"/>
	<path class="st1_presentation-71" d="M404.1,238.3H283.8c-8.9,0-16.2-7.2-16.2-16.2v-3.8c0-1,0.8-1.8,1.8-1.8h149c1,0,1.8,0.8,1.8,1.8v3.8&#10;&#9;&#9;C420.2,231.1,413,238.3,404.1,238.3z M271.2,220.2v1.9c0,6.9,5.6,12.5,12.6,12.5h120.3c6.9,0,12.6-5.6,12.6-12.6v-1.9L271.2,220.2z&#10;&#9;&#9;"/>
	<rect x="283.1" y="144.2" class="st4_presentation-71" width="37.2" height="25.2"/>
	<path class="st1_presentation-71" d="M320.4,171.2h-37.2c-1,0-1.8-0.8-1.8-1.8v-25.2c0-1,0.8-1.8,1.8-1.8h37.2c1,0,1.8,0.8,1.8,1.8v25.2&#10;&#9;&#9;C322.2,170.4,321.4,171.2,320.4,171.2z M285,167.6h33.6V146H285V167.6z"/>
	<rect x="283.1" y="179.7" class="st7_presentation-71" width="37.2" height="25.2"/>
	<path class="st1_presentation-71" d="M320.4,206.7h-37.2c-1,0-1.8-0.8-1.8-1.8v-25.2c0-1,0.8-1.8,1.8-1.8h37.2c1,0,1.8,0.8,1.8,1.8v25.2&#10;&#9;&#9;C322.2,205.9,321.4,206.7,320.4,206.7z M285,203.1h33.6v-21.6H285V203.1z"/>
	<path class="st8_presentation-71" d="M398.9,154.4h-58.4c-1,0.1-1.9-0.7-1.9-1.7c-0.1-1,0.7-1.9,1.7-1.9c0.1,0,0.2,0,0.3,0h58.4&#10;&#9;&#9;c1,0.1,1.8,0.9,1.7,1.9C400.5,153.6,399.8,154.3,398.9,154.4L398.9,154.4z"/>
	<path class="st8_presentation-71" d="M381.2,166.5h-40.7c-1,0.1-1.9-0.7-1.9-1.7c-0.1-1,0.7-1.9,1.7-1.9c0.1,0,0.2,0,0.3,0h40.7&#10;&#9;&#9;c1,0.1,1.8,0.9,1.7,1.9C382.8,165.7,382.1,166.4,381.2,166.5L381.2,166.5z"/>
	<path class="st8_presentation-71" d="M398.9,186.3h-58.4c-1,0-1.8-0.8-1.8-1.8c0-1,0.8-1.8,1.8-1.8c0,0,0,0,0,0h58.4c1,0,1.8,0.8,1.8,1.8&#10;&#9;&#9;C400.7,185.5,399.9,186.3,398.9,186.3L398.9,186.3z"/>
	<path class="st8_presentation-71" d="M369.7,198.3h-29.2c-1,0-1.8-0.8-1.8-1.8c0-1,0.8-1.8,1.8-1.8c0,0,0,0,0,0h29.2c1,0,1.8,0.8,1.8,1.8&#10;&#9;&#9;C371.5,197.5,370.7,198.3,369.7,198.3C369.7,198.3,369.7,198.3,369.7,198.3z"/>
</g>
</svg>