<svg version="1.1" id="Layer_1" xmlns="http://www.w3.org/2000/svg" xmlns:xlink="http://www.w3.org/1999/xlink" x="0px" y="0px" viewBox="0 0 500 500" style="width: 151px;" xml:space="preserve" data-imageid="step-two-80" imageName="Step Two" class="illustrations_image">
<style type="text/css">
	.st0_step-two-80{fill:#D1D3D4;}
	.st1_step-two-80{fill:#FFFFFF;}
	.st2_step-two-80{fill:#231F20;}
	.st3_step-two-80{fill:#68E1FD;}
</style>
<g id="Floor_step-two-80">
	<path class="st0_step-two-80" d="M449.5,363.1H50.5c-0.4,0-0.7-0.3-0.7-0.7c0-0.4,0.3-0.7,0.7-0.7h399.1c0.4,0,0.7,0.3,0.7,0.7&#10;&#9;&#9;C450.2,362.8,449.9,363.1,449.5,363.1z"/>
</g>
<g id="Steps_step-two-80">
	<rect x="102.6" y="319.5" class="st1_step-two-80" width="80.1" height="52.9"/>
	<path class="st0_step-two-80" d="M182.7,373.1h-80.1c-0.4,0-0.7-0.3-0.7-0.7l0,0v-52.9c0-0.4,0.3-0.7,0.7-0.7h0h80.1c0.4,0,0.7,0.3,0.7,0.7l0,0&#10;&#9;&#9;v52.9C183.4,372.8,183.1,373.1,182.7,373.1z M103.3,371.7H182v-51.5h-78.7V371.7z"/>
	<rect x="209.9" y="274.2" class="st1_step-two-80" width="80.1" height="98.2"/>
	<path class="st2_step-two-80" d="M290.1,373.1h-80.1c-0.4,0-0.7-0.3-0.7-0.7l0,0v-98.2c0-0.4,0.3-0.7,0.7-0.7c0,0,0,0,0,0h80.1&#10;&#9;&#9;c0.4,0,0.7,0.3,0.7,0.7v0v98.2C290.8,372.8,290.5,373.1,290.1,373.1L290.1,373.1z M210.6,371.7h78.7v-96.8h-78.7V371.7z"/>
	<rect x="317.3" y="239.3" class="st1_step-two-80" width="80.1" height="133.1"/>
	<path class="st0_step-two-80" d="M397.4,373.1h-80.1c-0.4,0-0.7-0.3-0.7-0.7v0V239.3c0-0.4,0.3-0.7,0.7-0.7l0,0h80.1c0.4,0,0.7,0.3,0.7,0.7&#10;&#9;&#9;c0,0,0,0,0,0v133.1C398.1,372.8,397.8,373.1,397.4,373.1L397.4,373.1z M318,371.7h78.7V240H318V371.7z"/>
</g>
<g id="Plant_step-two-80">
	<path class="st2_step-two-80" d="M432.2,330.8c0.1-1.3-0.2-2.6-0.8-3.8c-0.6-0.8-1.2-1.6-1.7-2.4c-0.7-1.5-0.2-3.4-0.4-5.1&#10;&#9;&#9;c-0.1-1.4-0.8-2.8-1.8-3.8c-0.9-0.9-2-1.5-2.9-2.5c-1.4-1.5-1.8-3.7-2.6-5.6c-1.1-2.7-3.1-5-5.6-6.5c1.5,3-1.9,6.9-0.4,9.9&#10;&#9;&#9;c0.5,1,1.4,1.7,1.8,2.7c0.9,2.5-2,5.1-1.1,7.5c0.5,1.2,1.8,1.9,2.4,3.1c0.8,1.5,0.2,3.4,0.2,5.2c0.3,2.4,1.4,4.7,3.3,6.3&#10;&#9;&#9;c1.1,1,2.3,1.9,3.5,2.9c1.4,1.1,2,2.3,3.2,0.5C431.2,336.8,432.1,333.8,432.2,330.8z"/>
	<path class="st2_step-two-80" d="M433.8,332.2c-0.5-1.9-0.8-3.9,0-5.7c0.9-2,3-3.4,3.3-5.6c0.2-1.4-0.6-2.9-0.3-4.2s1.4-2.4,2.4-3.4&#10;&#9;&#9;c2.2-2.4,3.5-5.4,3.6-8.6c1.5,1.7,2.6,3.7,3.5,5.8c0.8,2.1,0.7,4.5-0.5,6.5c-0.4,0.4-0.7,0.9-0.9,1.4c-0.4,1.4,0.8,2.7,1.4,4&#10;&#9;&#9;c0.7,1.5,0.6,3.3-0.4,4.7c-1.2,1.5-3.6,2.1-4.2,4c-0.2,0.7-0.2,1.4-0.2,2.1c-0.3,2.5-2.1,4.7-4.5,5.4c-1.5,0.4-1.4-0.2-1.7-1.5&#10;&#9;&#9;C434.8,335.5,434.2,333.9,433.8,332.2z"/>
	<path class="st2_step-two-80" d="M429.1,318.8c-1-3.6-1.5-7.4-2.5-10.9c-0.9-2.8-2.1-5.5-3.4-8.1l4.5,1.9c1.4,0.6,3,1.3,3.6,2.7&#10;&#9;&#9;c1.2,2.4-0.9,5.5,0.3,8c0.5,0.8,1.1,1.5,1.8,2.2c1.3,1.8,1.1,4.4,0.4,6.5c-0.3,0.9-1.7,5.7-2.9,4.4c-0.5-0.5-0.5-2.5-0.7-3.2&#10;&#9;&#9;C429.8,321,429.4,319.9,429.1,318.8z"/>
	<path class="st2_step-two-80" d="M431.2,366.6c-0.9-5.9-3.7-26.6-3.7-26.8l1.4-0.2c0,0.2,2.8,20.9,3.7,26.8L431.2,366.6z"/>
	<path class="st2_step-two-80" d="M432.9,372.1h-1.4c0-7,3-33.8,4.7-35.7l1,0.9C436.1,338.9,433,363.6,432.9,372.1z"/>
	<path class="st2_step-two-80" d="M434.4,370.8l-1.4-0.1c0.7-15-2.5-46.6-2.6-46.9l1.4-0.1C431.9,324,435.1,355.6,434.4,370.8z"/>
	<path class="st1_step-two-80" d="M423.9,349.7h16.6l-1.2,18.9c-0.2,3.3-2.6,5.8-5.5,5.8h-3.2c-2.9,0-5.3-2.5-5.5-5.8L423.9,349.7z"/>
	<path class="st2_step-two-80" d="M433.8,375h-3.2c-3.3,0-6-2.9-6.2-6.5l-1.2-18.9c0-0.2,0.1-0.4,0.2-0.5c0.1-0.1,0.3-0.2,0.5-0.2h16.6&#10;&#9;&#9;c0.2,0,0.4,0.1,0.5,0.2c0.1,0.1,0.2,0.3,0.2,0.5l-1.2,18.9C439.8,372.2,437.1,375,433.8,375z M424.7,350.4l1.1,18.1&#10;&#9;&#9;c0,2.7,2.1,4.9,4.8,5.1h3.2c2.7-0.2,4.8-2.4,4.8-5.1l1.1-18.1H424.7z"/>
</g>
<g id="Character_step-two-80">
	<path class="st1_step-two-80" d="M264.8,178.1l9.5,3.6l5.9-22.3c0,0-3.1-3.7-2.4-5.3c0.2-0.9,1-1.5,1.9-1.6c0,0-1.9-8.4,1.1-9.1&#10;&#9;&#9;c1.6-0.4,1.3,8.8,1.3,8.8s1.6-9,3.4-8.8s0.1,9.1,0.1,9.1s3.4,0.7,3,2.8s-2.9,4.4-2.9,4.4s1.4,30.9-1.6,36.8&#10;&#9;&#9;c-2.2,4.3-27.2-7.2-27.2-7.2"/>
	<path class="st2_step-two-80" d="M281.3,198c-6.5,0-20-6-24.8-8.2c-0.3-0.2-0.5-0.6-0.3-1c0.2-0.3,0.5-0.4,0.9-0.3c11.7,5.4,25.1,9.8,26.2,7.5&#10;&#9;&#9;c2.9-5.7,1.5-36.2,1.5-36.5c0-0.2,0.1-0.4,0.2-0.5c0.6-0.6,2.4-2.5,2.7-4.1c0.3-1.4-2.4-2-2.4-2c-0.4-0.1-0.6-0.4-0.5-0.8&#10;&#9;&#9;c0.6-3.7,0.8-7.3,0.5-8.2c-0.7,0.6-1.8,4.3-2.5,8.2c-0.1,0.4-0.4,0.6-0.8,0.6c-0.4,0-0.6-0.4-0.6-0.7c0.1-3.7-0.1-7.3-0.6-8.1&#10;&#9;&#9;c-1.4,0.6-1.1,5.2-0.4,8.2c0,0.2,0,0.4-0.1,0.6c-0.1,0.2-0.3,0.3-0.5,0.3c-0.1,0-0.8,0.1-1.2,1.2c-0.3,0.8,1.1,3.2,2.3,4.6&#10;&#9;&#9;c0.1,0.2,0.2,0.4,0.1,0.6l-5.9,22.3c-0.1,0.2-0.2,0.3-0.4,0.4c-0.2,0.1-0.4,0.1-0.6,0l-9.5-3.6c-0.4-0.1-0.5-0.5-0.4-0.9&#10;&#9;&#9;c0.1-0.4,0.5-0.5,0.9-0.4c0,0,0,0,0,0l8.7,3.3l5.6-21.2c-0.9-1.1-3-4-2.3-5.8c0.3-0.8,0.9-1.5,1.7-1.9c-0.5-2.4-1.4-8.6,1.7-9.3&#10;&#9;&#9;c0.4-0.1,0.7,0,1,0.2c0.6,0.5,0.9,2,1.1,3.7c0.7-2.3,1.7-4.1,2.8-4c0.3,0,0.6,0.2,0.8,0.4c1,1.3,0.4,6.5,0,8.9&#10;&#9;&#9;c1.5,0.5,3.2,1.6,2.9,3.4s-2.2,3.9-2.9,4.6c0.1,3.4,1.2,31.1-1.7,36.9C284.1,197.6,282.9,198,281.3,198z"/>
	<path class="st1_step-two-80" d="M204.5,157.4c0,0-24.5-10.1-25.5-8.2s-10,36.8-9.9,38.4s-1.7,7.7,0.1,9s7.8,3.4,8.6,0.3s-0.4-10.2-0.4-10.2&#10;&#9;&#9;l11.6-23.8l11.4,5"/>
	<path class="st2_step-two-80" d="M175.1,199.2c-2.3-0.1-4.5-0.8-6.4-2c-1.6-1.1-1.1-4.5-0.7-7.2c0.1-0.8,0.2-1.5,0.3-2.3&#10;&#9;&#9;c-0.1-1.9,8.8-36.7,10-38.8c0.3-0.6,1.3-2.5,26.4,7.9c0.4,0.1,0.6,0.5,0.5,0.9s-0.5,0.6-0.9,0.5c0,0-0.1,0-0.1,0&#10;&#9;&#9;c-10.8-4.5-22.9-8.8-24.7-8.4c-1.2,2.9-9.8,36.1-9.8,37.9c0,0.9-0.1,1.7-0.3,2.6c-0.3,1.8-0.8,5.2,0.1,5.9c1.3,0.9,4.9,2.2,6.7,1.6&#10;&#9;&#9;c0.4-0.1,0.7-0.5,0.8-0.9c0.8-2.9-0.4-9.8-0.4-9.9c0-0.1,0-0.3,0.1-0.4l11.6-23.8c0.2-0.3,0.6-0.5,0.9-0.3l11.4,5&#10;&#9;&#9;c0.4,0.1,0.6,0.5,0.4,0.9c-0.1,0.4-0.5,0.6-0.9,0.4c0,0-0.1,0-0.1,0l-10.8-4.7l-11.2,23c0.2,1.3,1,7.4,0.3,10.3&#10;&#9;&#9;c-0.2,0.9-0.9,1.6-1.7,1.9C176.3,199.1,175.7,199.2,175.1,199.2z"/>
	<path class="st2_step-two-80" d="M234,217.4c0,0,39.6,5.8,41.3,13.8c1.4,6.7-3.9,33.9-3.9,33.9l-12.1-0.7c0,0,0.5-25.3-0.9-27.2&#10;&#9;&#9;s-40.1-6.5-40.1-6.5l-10.4,26.5l-43.7,23.9l-3.3-13l26.2-18.4l12-38.6L234,217.4z"/>
	<path class="st2_step-two-80" d="M164.4,281.8c-0.1,0-0.2,0-0.3-0.1c-0.2-0.1-0.3-0.3-0.4-0.5l-3.3-13c-0.1-0.3,0-0.6,0.3-0.7l26-18.3l12-38.4&#10;&#9;&#9;c0.1-0.3,0.4-0.5,0.8-0.5l34.7,6.3c0.4,0.1,10.2,1.5,20.1,3.9c13.9,3.4,21,6.8,21.8,10.4c1.5,6.7-3.6,33.1-3.9,34.2&#10;&#9;&#9;c-0.1,0.3-0.4,0.6-0.7,0.6l-12.1-0.7c-0.4,0-0.7-0.3-0.7-0.7c0.3-12,0.1-25.5-0.7-26.7c-1.5-1.2-24.6-4.4-39.1-6.1l-10.2,26&#10;&#9;&#9;c-0.1,0.2-0.2,0.3-0.3,0.4l-43.7,23.9C164.6,281.8,164.5,281.8,164.4,281.8z M161.9,268.4l2.9,11.6l42.7-23.3l10.2-26.3&#10;&#9;&#9;c0.1-0.3,0.4-0.5,0.7-0.4c11.7,1.4,39.1,4.9,40.5,6.8s1.2,20.3,1,26.9l10.8,0.6c0.8-4,5-27.1,3.8-33c-1.3-6.2-29.9-11.7-40.8-13.2&#10;&#9;&#9;l0,0l-34.1-6.2l-11.9,38c0,0.1-0.1,0.3-0.3,0.4L161.9,268.4z"/>
	<path class="st1_step-two-80" d="M259.4,264.4v9.8H287c0,0-7.5-4.9-15.6-9.1L259.4,264.4z"/>
	<path class="st2_step-two-80" d="M259.4,274.9c-0.4,0-0.7-0.3-0.7-0.7c0,0,0,0,0,0v-9.8c0-0.2,0.1-0.4,0.2-0.5c0.1-0.1,0.3-0.2,0.5-0.2&#10;&#9;&#9;l12.1,0.7c0.1,0,0.2,0,0.3,0.1c8.1,4.2,15.6,9.1,15.6,9.1c0.3,0.2,0.4,0.7,0.2,1c-0.1,0.2-0.3,0.3-0.6,0.3L259.4,274.9L259.4,274.9&#10;&#9;&#9;z M260.1,265.1v8.4h24.6c-2.7-1.7-7.9-4.9-13.4-7.7L260.1,265.1z"/>
	<path class="st1_step-two-80" d="M161.1,268.1l-9,3.1c0,0,8.4,26.6,10.8,25.3s1.5-15.4,1.5-15.4L161.1,268.1z"/>
	<path class="st2_step-two-80" d="M162.6,297.2c-0.2,0-0.3,0-0.4-0.1c-2.9-1.1-9-20-10.8-25.7c-0.1-0.4,0.1-0.8,0.4-0.9l9-3.1&#10;&#9;&#9;c0.2-0.1,0.4-0.1,0.6,0c0.2,0.1,0.3,0.3,0.3,0.4l3.3,13c0.2,3.5,0.7,14.7-1.9,16.2C163,297.2,162.8,297.2,162.6,297.2z&#10;&#9;&#9; M152.9,271.7c3.6,11.3,8.1,23,9.7,24.1c1.2-1.1,1.5-8.3,1.1-14.6l-3.1-12.1L152.9,271.7z"/>
	<path class="st3_step-two-80 targetColor" d="M195.8,151.6l-5.7,16.4l18.8,8.9l-11.2,35.5l44.3,6.4l2.3-31.6l17,5.8l6.2-16.1c0,0-25.6-12-35.6-14.5&#10;&#9;&#9;S195.8,151.6,195.8,151.6z" style="fill: rgb(104, 225, 253);"/>
	<path class="st1_step-two-80" d="M249.8,138.8c1.2-1.7,1.7-3.8,1.4-5.8c-0.4-2-1.5-3.8-3.2-4.9c-1.6-1.2-3.5-1.9-5.5-2.2&#10;&#9;&#9;c-3.2-0.6-6.5,0-9.4,1.5c-2.9,1.6-4.9,4.4-5.3,7.7c-1.3-0.6-2.9-0.5-4.1,0.4c-3.4,2.1-4.4,6.8-3.5,10.7c0.3,1.3,0.8,2.5,1.6,3.6&#10;&#9;&#9;c0.8,0.9,1.7,1.7,2.8,2.3c4.7,2.8,11.3,2.8,15.2-1c2.1-2,2.5-5.2,4.5-7.2S248.3,141.1,249.8,138.8z"/>
	<path class="st2_step-two-80" d="M231.9,154.7c-2.7,0-5.4-0.7-7.7-2.1c-1.2-0.6-2.2-1.5-3-2.5c-0.8-1.1-1.4-2.5-1.7-3.9&#10;&#9;&#9;c-0.9-3.9-0.1-9.1,3.8-11.5c1.2-0.7,2.5-1,3.9-0.7c0.7-3.1,2.7-5.8,5.5-7.4c3-1.6,6.5-2.2,9.9-1.6c2.1,0.3,4.1,1.1,5.9,2.3&#10;&#9;&#9;c1.8,1.3,3,3.2,3.5,5.4c0.3,2.2-0.2,4.5-1.5,6.3c-0.9,1.3-2.1,2.5-3.5,3.3c-0.8,0.5-1.5,1.1-2.2,1.8c-0.9,1-1.5,2.1-2,3.2&#10;&#9;&#9;c-0.6,1.5-1.4,2.8-2.5,4C237.9,153.7,234.9,154.8,231.9,154.7z M226.2,135.4c-0.8,0-1.5,0.2-2.2,0.6c-3.3,2-4,6.6-3.2,9.9&#10;&#9;&#9;c0.2,1.2,0.7,2.3,1.5,3.3c0.7,0.9,1.6,1.6,2.6,2.1c4.8,2.8,10.9,2.4,14.4-0.9c1-1,1.7-2.2,2.2-3.5c0.5-1.3,1.3-2.6,2.2-3.6&#10;&#9;&#9;c0.7-0.7,1.5-1.3,2.4-1.9c1.2-0.8,2.3-1.8,3.2-3l0,0c1.1-1.6,1.5-3.5,1.3-5.3c-0.4-1.8-1.4-3.4-2.9-4.5c-1.6-1.1-3.4-1.8-5.2-2.1&#10;&#9;&#9;c-3.1-0.6-6.2-0.1-9,1.4c-2.7,1.5-4.6,4.1-5,7.2c0,0.2-0.2,0.4-0.4,0.5c-0.2,0.1-0.5,0.1-0.7,0C227,135.5,226.6,135.4,226.2,135.4z&#10;&#9;&#9;"/>
	<path class="st1_step-two-80" d="M237.5,159.8l-0.4,7.4c0,0-1.1,3.4-6,1.9s-5.5-4.9-5.5-4.9l1.2-13.8c0,0,3.2-2,2.5-10c4.8,1.6,9.9,2.3,15,2&#10;&#9;&#9;c0,0-0.3,9.1-1,12.9S237.5,159.8,237.5,159.8z"/>
	<path class="st2_step-two-80" d="M233.3,170.2c-0.8,0-1.6-0.1-2.4-0.4c-5.3-1.5-6-5.2-6-5.4c0-0.1,0-0.1,0-0.2l1.2-13.8c0-0.2,0.1-0.4,0.3-0.5&#10;&#9;&#9;c0,0,2.8-1.9,2.1-9.4c0-0.2,0.1-0.5,0.3-0.6c0.2-0.1,0.4-0.2,0.7-0.1c0.1,0,7.5,2.6,14.7,2c0.2,0,0.4,0.1,0.5,0.2&#10;&#9;&#9;c0.1,0.1,0.2,0.3,0.2,0.5c0,0.4-0.3,9.1-1.1,13c-0.7,3.5-4.3,4.6-5.7,4.9l-0.4,6.9c0,0.1,0,0.1,0,0.2&#10;&#9;&#9;C237.1,169.2,235.3,170.3,233.3,170.2z M226.3,164.2c0.1,0.5,0.9,3.1,5,4.2c3.8,1.1,5-1,5.2-1.4l0.4-7.3c0-0.3,0.3-0.6,0.6-0.7&#10;&#9;&#9;c0.1,0,4.4-0.6,5.1-3.9c0.6-4,0.9-8,1-12c-4.6,0.2-9.2-0.5-13.5-1.8c0.3,6.2-1.8,8.7-2.6,9.4L226.3,164.2z M237.1,167.2&#10;&#9;&#9;L237.1,167.2z"/>
	<path class="st1_step-two-80" d="M228,149.9c-0.4-1.6-1.7-2.7-3.4-2.9c-0.8-0.1-1.5,0.2-2,0.8c-0.6,1.1-0.7,2.4-0.1,3.5c0.8,2,3,3.1,5.1,2.3&#10;&#9;&#9;c0,0,0,0,0.1,0"/>
	<path class="st2_step-two-80" d="M226.1,154.5c-0.6,0-1.3-0.1-1.9-0.4c-1.1-0.5-2-1.4-2.4-2.6c-0.3-0.8-0.9-2.8,0.2-4.2&#10;&#9;&#9;c0.7-0.8,1.6-1.2,2.6-1.1c1.9,0.2,3.5,1.6,4,3.4c0.1,0.4-0.2,0.8-0.6,0.8s-0.8-0.2-0.8-0.6c-0.3-1.3-1.4-2.2-2.7-2.3&#10;&#9;&#9;c-0.5-0.1-1.1,0.1-1.4,0.6c-0.4,0.9-0.4,1.9,0,2.8c0.6,1.7,2.5,2.5,4.2,1.9c0,0,0,0,0.1,0c0.4-0.1,0.8,0,0.9,0.4&#10;&#9;&#9;c0.1,0.4,0,0.8-0.4,0.9c0,0,0,0,0,0C227.3,154.4,226.7,154.5,226.1,154.5z"/>
	<path class="st2_step-two-80" d="M237.2,152.8c-0.5,0-0.9-0.1-1.3-0.2c-0.4-0.1-0.6-0.4-0.5-0.8c0.1-0.4,0.4-0.6,0.8-0.5c0,0,0.1,0,0.1,0&#10;&#9;&#9;c0.5,0.1,1,0.1,1.6,0c-0.5-1.3-1.1-2.6-1.9-3.8c-0.2-0.3-0.1-0.8,0.2-1s0.8-0.1,1,0.2l0,0c2.9,4.4,2.2,5.1,1.9,5.4&#10;&#9;&#9;C238.4,152.6,237.8,152.8,237.2,152.8z"/>
	<path class="st2_step-two-80" d="M237.5,159.8c0,0-3.9-0.3-5.6-1.5c0,0,1.2,4.5,5.3,5.9L237.5,159.8z"/>
	<path class="st2_step-two-80" d="M237.2,164.9c-0.1,0-0.2,0-0.2,0c-4.4-1.5-5.7-6.2-5.7-6.4c-0.1-0.4,0.1-0.7,0.5-0.8c0.2-0.1,0.4,0,0.6,0.1&#10;&#9;&#9;c1.3,0.9,4.2,1.3,5.2,1.3c0.4,0,0.7,0.4,0.6,0.7c0,0,0,0,0,0l-0.3,4.5c0,0.2-0.1,0.4-0.3,0.5C237.5,164.9,237.3,164.9,237.2,164.9z&#10;&#9;&#9; M233.2,159.7c0.7,1.5,1.9,2.7,3.3,3.5l0.2-2.8C235.6,160.3,234.4,160,233.2,159.7L233.2,159.7z"/>
	
		<ellipse transform="matrix(0.1872 -0.9823 0.9823 0.1872 47.5999 346.8688)" class="st2_step-two-80" cx="233.4" cy="144.7" rx="0.9" ry="0.6"/>
	<ellipse transform="matrix(0.1903 -0.9817 0.9817 0.1903 50.2805 354.4532)" class="st2_step-two-80" cx="240" cy="146.7" rx="0.9" ry="0.6"/>
	<path class="st2_step-two-80" d="M235.8,155.9c-2.1,0-4-1.2-5-3c-0.2-0.3,0-0.8,0.3-0.9c0,0,0,0,0,0c0.3-0.2,0.8,0,0.9,0.3&#10;&#9;&#9;c0.1,0.2,1.9,3.7,6.5,1.6c0.4-0.1,0.8,0.1,0.9,0.4c0.1,0.3,0,0.7-0.3,0.9C238.1,155.6,237,155.9,235.8,155.9z"/>
	<path class="st1_step-two-80" d="M279.6,152.4c0,0,4.9-0.2,4.3,1.2s-2.8,1.6-2.8,1.6s2.6-0.1,1.6,1.8"/>
	<path class="st2_step-two-80" d="M282.8,157.6c-0.1,0-0.2,0-0.3-0.1c-0.3-0.2-0.5-0.6-0.3-0.9c0,0,0,0,0,0c0.2-0.3,0.1-0.4,0.1-0.4&#10;&#9;&#9;c-0.3-0.2-0.7-0.3-1.1-0.3c-0.4,0-0.7-0.2-0.7-0.6c0,0,0,0,0,0c0-0.4,0.2-0.7,0.6-0.7c0.8-0.1,1.6-0.4,2.1-1.1&#10;&#9;&#9;c-1.1-0.3-2.3-0.4-3.5-0.4c-0.4,0-0.7-0.3-0.7-0.6c0,0,0,0,0,0c0-0.4,0.3-0.7,0.7-0.7c1.5-0.1,4.1,0,4.9,1c0.2,0.3,0.3,0.8,0.1,1.1&#10;&#9;&#9;c-0.3,0.6-0.7,1-1.2,1.3c0.1,0.1,0.1,0.1,0.2,0.2c0.3,0.6,0.3,1.3-0.1,1.9C283.2,157.5,283,157.6,282.8,157.6z"/>
	<path class="st2_step-two-80" d="M205.3,189.2c-0.1,0-0.1,0-0.2,0c-0.4-0.1-0.6-0.5-0.4-0.9c0.2-0.6,6.4-20.5,6.4-20.5l1.3,0.4&#10;&#9;&#9;c0,0-6.2,19.9-6.4,20.5C205.9,189,205.6,189.2,205.3,189.2z"/>
</g>
<g id="No_2_step-two-80">
	<path class="st2_step-two-80" d="M245.9,331.2H265v6h-28.2v-4.5c-0.2-2.4,0.7-4.8,2.4-6.5c1.8-1.8,4.8-3.3,9.5-5c6.6-2.3,8.7-3.7,8.7-6&#10;&#9;&#9;s-2.2-3.6-5.9-3.6c-4.3,0-7,2-7.4,5.6l-7.9-0.5c0.6-6.9,6.4-11.1,15.3-11.1c8.2,0,13.8,4,13.8,9.6c0,4.5-3.5,7.7-11,10.4&#10;&#9;&#9;c-6.1,2.2-7,2.6-7.8,3.4C246.1,329.6,245.8,330.4,245.9,331.2z"/>
</g>
</svg>